<?xml version="1.0" encoding="utf-8"?>
<!-- Svg Vector Icons : http://www.onlinewebfonts.com/icon -->
<!DOCTYPE svg PUBLIC "-//W3C//DTD SVG 1.1//EN" "http://www.w3.org/Graphics/SVG/1.1/DTD/svg11.dtd">
<svg version="1.1" xmlns="http://www.w3.org/2000/svg" xmlns:xlink="http://www.w3.org/1999/xlink" x="0px" y="0px" viewBox="0 0 256 256" enable-background="new 0 0 256 256" xml:space="preserve">
<metadata> Svg Vector Icons : http://www.onlinewebfonts.com/icon </metadata>
<g><g><g><path fill="#000000" d="M74.1,26.7c-1.5,1.5-1.4,2.8,0.5,8.8c2.1,6.8,2.1,8.5-0.1,11.4c-1.8,2.3-2.6,2.7-12.7,6c-15.2,5-20.1,8.1-30.8,19.3c-7.3,7.7-8,8.1-13.3,8.1c-3.3,0-5.6,1.5-7,4.5c-1.8,4.2-0.3,8.2,4.5,11.8c3.9,2.9,7,6.5,10.4,12c4,6.6,6.6,9.9,11.4,14.5c4.7,4.5,8,6.4,12.9,7.7c5.1,1.3,2.4,1.9,42.8-9.9c13.3-3.9,24.9-7.6,26.7-8.5c2.3-1.2,5-3.4,10.2-8.7c3.9-3.9,7.5-8,8.1-9.1c1.2-2.4,1.3-5.1,0.3-7.5c-0.9-2-26.3-29.5-28.9-31.2c-1-0.6-2.6-1.5-3.6-1.9c-3.3-1.3-5.2-3.1-7.5-7.5c-4.2-7.9-11-15.2-17.9-19.1C77.4,25.8,75.3,25.6,74.1,26.7z M96.2,69.3c2.8,0.8,6.3,4.3,7.1,7.1c2.4,8.7-2.5,14.2-19.2,21.5c-11.2,5-26.3,9.4-32.1,9.4c-6,0-10-6.3-7.7-12.4c1.3-3.3,2.6-4.3,9.4-6.6c11.7-4,21-8.7,30.3-15.1C90.7,68.8,92.2,68.2,96.2,69.3z"/><path fill="#000000" d="M141.2,104.5c-9.3,9.1-15.4,14-20.1,16.3c-2.2,1.1-12.5,4.4-24.8,8c-11.6,3.4-21.3,6.3-21.4,6.4c-0.2,0.1,4.1,17.5,4.4,18c0,0.1,3.7-0.8,8.2-2c4.4-1.2,8.4-2,8.7-1.9c0.3,0.2,1.5,4,2.7,8.5s2.3,8.2,2.5,8.2s4.1-1,8.6-2.2c4.5-1.2,8.4-2.1,8.5-2c0.1,0.1,1.1,3.6,2.1,7.9c1.1,4.3,2.2,8,2.4,8.5c0.4,0.5,2.2,0.2,8.8-1.5c4.6-1.2,8.5-2.1,8.5-2c0.1,0.1,1.2,3.9,2.3,8.3c1.2,4.4,2.2,8.2,2.3,8.5c0.2,0.2,3.6-0.6,7.8-1.7c4.2-1.1,8-2.1,8.6-2.2c0.9-0.2,1.3,0.8,3.2,8.2c1.2,4.5,2.3,8.4,2.4,8.5c0.2,0.2,4-0.7,8.6-1.9c4.5-1.2,8.4-2.1,8.6-1.9c0.2,0.2,1.3,4,2.4,8.4c1.2,4.5,2.2,8.2,2.3,8.3c0.1,0.1,3.9-0.8,8.5-2c4.5-1.2,8.4-2.1,8.6-1.9c0.2,0.1,1.3,4,2.5,8.5c1.2,4.5,2.3,8.2,2.4,8.2s8.2-8,17.8-17.9l17.4-17.9l-48.4-48.4c-26.6-26.6-48.6-48.5-48.7-48.5C148.7,97.4,145.2,100.6,141.2,104.5z M225.4,187.2c5.2,3.2,5,10.6-0.4,13.4c-5.3,2.8-11.8-1.9-10.9-7.7C215,187.4,220.8,184.4,225.4,187.2z"/></g></g></g>
</svg>